<mxfile host="app.diagrams.net" modified="2024-04-02T20:21:03.001Z" agent="Mozilla/5.0 (X11; Ubuntu; Linux x86_64; rv:124.0) Gecko/20100101 Firefox/124.0" etag="Ab-qsOdGPUjXzCOqwBm-" version="23.1.5" type="github">
  <diagram name="Page-1" id="mF5-1dpCMwhVGof68q4r">
    <mxGraphModel dx="2284" dy="696" grid="1" gridSize="10" guides="1" tooltips="1" connect="1" arrows="1" fold="1" page="1" pageScale="1" pageWidth="850" pageHeight="1100" math="0" shadow="0">
      <root>
        <mxCell id="0" />
        <mxCell id="1" parent="0" />
        <mxCell id="1jMmflOh6GedlvBDHYe3-2" value="" style="whiteSpace=wrap;html=1;aspect=fixed;" vertex="1" parent="1">
          <mxGeometry x="-270" y="60" width="1020" height="1020" as="geometry" />
        </mxCell>
      </root>
    </mxGraphModel>
  </diagram>
</mxfile>
